<svg width="467" height="227" viewBox="0 0 467 227" fill="none" xmlns="http://www.w3.org/2000/svg">
<path fill-rule="evenodd" clip-rule="evenodd" d="M314.253 118.796C312.067 120.673 310.981 123.265 311.686 126.954C313.403 135.914 330.15 137.173 344.132 125.949C346.986 123.658 349.552 121.156 352.434 118.796C355.083 116.622 357.998 114.573 361.647 112.921C387.967 101.004 403.974 108.809 422.17 123.208C421.594 125.04 420.779 126.769 419.766 128.361C406.291 108.78 380.966 102.169 363.342 116.638C360.259 119.17 357.759 121.597 355.047 124.134C346.403 132.224 336.123 141.138 322.191 137.301C311.649 134.4 307.918 125.816 309.957 118.794L314.253 118.796Z" fill="#249083"/>
<path d="M60.9465 80.1291H71.8718V-1.58807e-06H60.9465L22.0946 69.2025V14.5693C22.0946 2.428 19.668 -1.58807e-06 11.168 -1.58807e-06H0.241333V2.42801H2.66933C9.95464 2.42801 11.168 7.28398 11.168 14.5693V80.1291H22.0946L60.9452 10.9266L60.9465 80.1291ZM136.826 35.8159V61.9185C136.826 74.6665 141.682 82.5585 156.858 82.5585V80.1291C151.396 80.1291 147.753 71.0238 147.753 61.9185V23.068H136.826L118.613 63.1332L100.402 23.0666H88.8691V80.1291H93.7251V34.6013L114.365 80.1291H116.792L136.826 35.8159ZM213.314 23.068H157.466V25.4946H158.68C165.964 25.4946 167.178 30.3519 167.178 37.6373V80.1305H178.105V27.9239H202.387V80.1291H213.314V23.068ZM273.411 48.5626C273.411 31.5666 265.519 21.8533 249.13 21.8533C233.953 21.8533 225.454 35.2093 225.454 51.5985C225.454 67.9892 233.953 81.3438 250.95 81.3438C260.057 81.3438 267.341 77.7011 272.803 68.5958L270.377 66.7745C266.126 72.8452 261.27 76.4878 253.379 76.4878C243.059 76.4878 236.989 66.7745 236.989 53.4199H273.169L273.411 48.5626ZM236.989 48.5626C236.989 36.4226 242.451 27.3173 249.735 27.3173C258.235 27.3173 262.485 35.2079 262.485 48.5639L236.989 48.5626ZM298.906 33.9946C301.335 30.3519 304.977 26.7106 311.655 26.7106C321.367 26.7106 325.616 37.6372 325.616 51.5985C325.616 65.5612 321.367 76.4878 310.441 76.4878C306.799 76.4878 302.55 74.6665 298.907 72.8452L298.906 33.9946ZM287.979 103.197H298.907V77.7012C302.549 79.5225 307.406 81.3438 314.083 81.3438C329.866 81.3438 337.15 67.9892 337.15 51.5985C337.15 35.2093 329.866 21.8533 315.297 21.8533C306.191 21.8533 301.335 25.4959 298.907 28.5306H298.299C297.086 24.888 294.051 23.068 287.979 23.068H277.054V25.4946H279.481C286.766 25.4946 287.981 30.3519 287.981 37.6373L287.979 103.197ZM388.143 80.1291H399.07V23.068H388.143L362.647 69.2025V37.6373C362.647 25.496 360.218 23.068 351.719 23.068H341.399V25.4946H343.22C350.506 25.4946 351.719 30.3519 351.719 37.6373V80.1305H362.647L388.143 33.9946V80.1291ZM457.952 37.6359C457.952 30.3519 459.165 25.4959 466.451 25.4959V23.068H437.919C424.564 23.068 413.636 26.7106 413.636 39.4572C413.636 48.5639 420.315 54.0265 427.599 55.2412L420.314 67.9878C417.887 72.2385 414.243 77.0945 408.78 77.7012V80.1291C410.602 80.7371 413.03 81.3425 415.458 81.3425C422.378 81.3425 426.627 77.7025 430.27 70.4172L437.555 55.8479H447.024V80.1291H457.951L457.952 37.6359ZM447.026 50.3852C445.204 50.9919 441.563 51.5985 439.134 51.5985C430.635 51.5985 425.172 47.9572 425.172 39.4572C425.172 30.9586 430.635 27.3173 439.134 27.3173C441.563 27.3173 445.204 27.9239 447.026 28.5306V50.3852Z" fill="#249083"/>
<path fill-rule="evenodd" clip-rule="evenodd" d="M57.3359 151.304C57.3359 164.536 48.5145 170.837 34.6546 170.837C30.8733 170.837 26.4626 170.206 22.6813 169.072V133.536C26.4626 132.402 30.8733 131.772 34.6546 131.772C48.5145 131.772 57.3359 138.072 57.3359 151.304ZM0 92.0771V94.5971H2.51999C10.08 94.5971 11.3413 99.6371 11.3413 107.198V175.246H36.5439C51.0372 175.246 69.9372 171.465 69.9372 151.304C69.9372 131.141 51.0359 127.36 36.5439 127.36H22.6826V97.1171H45.4919C55.5719 97.1171 61.2425 101.528 61.2425 111.609H63.7625V102.158C63.7625 97.1184 61.8732 92.0771 53.0519 92.0771H0ZM98.9198 121.06H119.084V175.246H130.425V116.02H79.2625V118.54C86.9504 118.54 88.2091 123.58 88.2091 131.14C88.2091 161.385 84.4291 171.465 74.9785 172.096V175.246C76.8691 175.876 80.0185 176.506 81.9091 176.506C93.8811 176.506 98.9211 166.426 98.9211 136.182L98.9198 121.06ZM195.322 142.482C195.322 124.84 187.132 114.758 170.12 114.758C154.368 114.758 145.546 128.621 145.546 145.633C145.546 162.645 154.368 176.506 172.009 176.506C181.461 176.506 189.022 172.726 194.693 163.274L192.173 161.385C187.761 167.685 182.721 171.465 174.53 171.465C163.818 171.465 157.517 161.385 157.517 147.522H195.07L195.322 142.482ZM157.518 142.482C157.518 129.882 163.189 120.429 170.75 120.429C179.57 120.429 183.981 128.621 183.981 142.482H157.518ZM231.865 114.758C212.963 114.758 204.143 128.621 204.143 145.633C204.143 162.645 212.963 176.506 231.866 176.506C241.946 176.506 249.509 172.726 255.179 163.274L252.659 161.385C248.249 167.685 243.207 171.465 234.387 171.465C221.786 171.465 216.115 160.125 216.115 145.633C216.115 131.14 221.786 119.8 234.387 119.8C243.207 119.8 250.138 124.84 250.769 135.55H253.289C253.289 126.101 253.289 122.32 250.138 119.169C246.987 116.02 240.686 114.758 231.865 114.758ZM279.123 131.141C279.123 118.54 276.603 116.02 267.782 116.02H256.439V118.54H258.961C266.521 118.54 267.782 123.58 267.782 131.14V175.246H279.123V148.153L293.615 166.426C299.285 173.482 305.586 176.506 311.887 176.506C314.407 176.506 316.927 175.876 318.187 175.246V172.852C312.517 172.096 308.107 168.316 303.697 162.645L289.203 144.373L303.066 124.84C304.097 123.397 305.262 122.292 306.497 121.457C306.213 119.772 306.247 118.064 306.59 116.418C301.215 117.414 297.769 120.218 294.874 124.21L279.123 146.264V131.141ZM306.497 121.457C308.491 120.564 312.49 119.169 314.407 119.169V116.02H311.257C310.998 116.02 306.837 116.413 306.583 116.42C306.319 117.82 306.178 119.79 306.497 121.457ZM356.622 163.274C354.102 167.056 350.95 170.836 344.648 170.836C338.348 170.836 332.678 167.056 332.678 158.865C332.678 151.304 340.239 146.264 352.84 146.264H356.622V163.274ZM367.963 175.246V141.222C367.963 125.962 363.114 119.256 356.487 116.502C354.94 117.91 353.47 119.316 351.93 120.756L350.772 121.834C354.352 124.453 356.622 130.064 356.622 141.221H352.84C335.829 141.221 320.707 145.002 320.707 158.865C320.707 172.726 332.049 176.506 338.979 176.506C348.43 176.506 354.1 172.726 356.622 169.576H357.251L361.662 175.246H367.963ZM349.899 114.945C348.59 114.812 347.255 114.758 345.91 114.758C338.35 114.758 330.158 116.02 327.009 119.169C323.889 122.289 323.858 126.026 323.858 130.381C325.822 130.101 327.883 129.588 329.985 128.832C332.153 121.972 336.958 119.8 343.39 119.8C343.681 119.8 343.97 119.806 344.255 119.818C345.916 118.352 347.558 116.858 349.316 115.416L349.899 114.945ZM425.21 124.621C425.21 138.993 436.968 150.752 451.339 150.752C436.968 150.752 425.21 162.512 425.21 176.882C425.21 162.51 413.45 150.752 399.079 150.752C413.45 150.752 425.21 138.992 425.21 124.621ZM445.886 124.782C445.886 128.181 448.667 130.961 452.066 130.961C448.667 130.961 445.887 133.744 445.887 137.141C445.887 133.744 443.104 130.962 439.707 130.962C443.104 130.962 445.886 128.181 445.886 124.782Z" fill="#249083"/>
<path d="M26.4933 224.261C26.6577 224.48 26.7399 224.701 26.7399 224.922C26.7399 225.197 26.6208 225.453 26.3826 225.691C26.1995 225.875 25.9608 225.967 25.6666 225.967C25.3555 225.967 25.099 225.857 24.8973 225.637L16.836 216.063H13.5906V224.894C13.5906 225.187 13.4897 225.439 13.288 225.65C13.0862 225.862 12.8293 225.967 12.5173 225.967C12.224 225.967 11.9715 225.862 11.76 225.65C11.5493 225.439 11.444 225.187 11.444 224.894V205.554C11.444 205.242 11.5493 204.985 11.76 204.784C11.9715 204.582 12.224 204.481 12.5173 204.481C12.8284 204.481 13.0853 204.582 13.288 204.784C13.4889 204.985 13.5897 205.242 13.5906 205.554V214.135H16.6986L24.1813 204.809C24.3839 204.589 24.6408 204.48 24.9519 204.48C25.2453 204.48 25.4835 204.571 25.6666 204.754C25.887 204.938 25.9973 205.168 25.9973 205.442C25.9973 205.662 25.8964 205.9 25.6946 206.158L18.5693 214.935L26.4933 224.261ZM48.0439 224.454C48.1177 224.601 48.1545 224.756 48.1545 224.921C48.1545 225.197 48.0537 225.44 47.8519 225.65C47.6492 225.862 47.3923 225.967 47.0812 225.967C46.6226 225.967 46.2923 225.747 46.0906 225.306L38.9372 208.03L31.7293 225.306C31.6564 225.527 31.5288 225.692 31.3466 225.802C31.1599 225.911 30.9577 225.967 30.7399 225.967C30.4279 225.967 30.171 225.862 29.9693 225.65C29.7675 225.439 29.6666 225.187 29.6666 224.894C29.6666 224.729 29.703 224.573 29.7759 224.427L37.8666 205.222C38.0683 204.727 38.4075 204.48 38.8839 204.48C39.3621 204.48 39.7106 204.727 39.9292 205.222L48.0439 224.454ZM69.5678 225.967C69.2745 225.967 69.0225 225.862 68.8118 225.65C68.6003 225.439 68.4945 225.187 68.4945 224.894V208.029L54.7665 225.609C54.6936 225.719 54.579 225.806 54.4225 225.87C54.267 225.935 54.1159 225.967 53.9692 225.967C53.6572 225.967 53.3959 225.862 53.1852 225.65C52.9745 225.439 52.8692 225.187 52.8692 224.894V205.554C52.8692 205.261 52.9745 205.008 53.1852 204.797C53.3959 204.586 53.6572 204.481 53.9692 204.481C54.2625 204.481 54.5101 204.582 54.7119 204.784C54.9136 204.985 55.0145 205.242 55.0145 205.554V222.446L68.7425 204.866C68.9443 204.608 69.2198 204.48 69.5692 204.481C69.8803 204.481 70.1367 204.582 70.3385 204.784C70.5403 204.985 70.6412 205.242 70.6412 205.554V224.894C70.6412 225.187 70.5403 225.439 70.3385 225.65C70.1367 225.862 69.8798 225.967 69.5678 225.967ZM78.7665 225.967C78.4731 225.967 78.2211 225.862 78.0105 225.65C77.7989 225.439 77.6931 225.187 77.6931 224.894V205.554C77.6931 205.242 77.7989 204.985 78.0105 204.784C78.2211 204.582 78.4731 204.481 78.7665 204.481C79.0776 204.481 79.3345 204.582 79.5371 204.784C79.7389 204.985 79.8398 205.242 79.8398 205.554V214.135H93.2651V205.553C93.2651 205.241 93.3704 204.984 93.5811 204.782C93.7918 204.58 94.0442 204.48 94.3384 204.48C94.6495 204.48 94.906 204.58 95.1078 204.782C95.3104 204.984 95.4113 205.241 95.4104 205.553V224.894C95.4104 225.187 95.3095 225.439 95.1078 225.65C94.906 225.862 94.6495 225.967 94.3384 225.967C94.0451 225.967 93.7927 225.862 93.5811 225.65C93.3704 225.439 93.2651 225.187 93.2651 224.894V216.063H79.8385V224.894C79.8385 225.187 79.738 225.439 79.5371 225.65C79.3354 225.862 79.0785 225.967 78.7665 225.967ZM119.164 225.967C118.87 225.967 118.618 225.862 118.406 225.65C118.196 225.439 118.09 225.187 118.09 224.894V208.029L104.362 225.609C104.289 225.719 104.174 225.806 104.018 225.87C103.863 225.935 103.712 225.967 103.565 225.967C103.254 225.967 102.992 225.862 102.78 225.65C102.569 225.439 102.464 225.187 102.464 224.894V205.554C102.464 205.261 102.569 205.008 102.78 204.797C102.991 204.586 103.253 204.481 103.565 204.481C103.858 204.481 104.106 204.582 104.308 204.784C104.509 204.985 104.61 205.242 104.61 205.554V222.446L118.338 204.866C118.539 204.608 118.814 204.48 119.164 204.481C119.475 204.481 119.731 204.582 119.933 204.784C120.135 204.985 120.236 205.242 120.236 205.554V224.894C120.236 225.187 120.135 225.439 119.933 225.65C119.731 225.862 119.475 225.967 119.164 225.967ZM128.362 225.967C128.069 225.967 127.817 225.862 127.605 225.65C127.394 225.439 127.289 225.187 127.289 224.894V205.554C127.289 205.242 127.394 204.985 127.605 204.784C127.816 204.582 128.068 204.481 128.362 204.481C128.673 204.481 128.93 204.582 129.132 204.784C129.333 204.985 129.434 205.242 129.434 205.554V214.135H142.861V205.553C142.861 205.241 142.966 204.984 143.177 204.782C143.388 204.58 143.64 204.48 143.933 204.48C144.244 204.48 144.501 204.58 144.704 204.782C144.905 204.984 145.006 205.241 145.006 205.553V224.894C145.006 225.187 144.905 225.439 144.704 225.65C144.501 225.862 144.244 225.967 143.933 225.967C143.64 225.967 143.388 225.862 143.177 225.65C142.965 225.439 142.86 225.187 142.86 224.894V216.063H129.434V224.894C129.434 225.187 129.333 225.439 129.132 225.65C128.93 225.862 128.673 225.967 128.362 225.967ZM153.133 225.967C152.84 225.967 152.587 225.862 152.376 225.65C152.165 225.439 152.06 225.187 152.06 224.894V205.554C152.06 205.242 152.165 204.985 152.376 204.784C152.586 204.582 152.838 204.481 153.132 204.481H164.66C164.971 204.481 165.227 204.582 165.429 204.784C165.632 204.985 165.732 205.233 165.732 205.526C165.732 205.82 165.631 206.063 165.429 206.256C165.228 206.448 164.972 206.544 164.66 206.544H154.206V224.895C154.206 225.189 154.105 225.441 153.902 225.651C153.701 225.863 153.444 225.969 153.132 225.969M180.378 226.242C178.288 226.242 176.408 225.765 174.738 224.811C173.069 223.858 171.762 222.542 170.818 220.863C169.873 219.185 169.401 217.301 169.401 215.21C169.401 213.119 169.873 211.239 170.818 209.57C171.762 207.901 173.069 206.59 174.738 205.637C176.408 204.683 178.288 204.206 180.378 204.206C182.449 204.206 184.325 204.683 186.005 205.637C187.682 206.59 188.993 207.901 189.938 209.57C190.882 211.239 191.354 213.119 191.354 215.21C191.354 217.301 190.882 219.185 189.938 220.863C188.994 222.543 187.683 223.859 186.005 224.811C184.324 225.765 182.449 226.242 180.378 226.242ZM180.377 224.206C182.046 224.206 183.555 223.812 184.902 223.023C186.25 222.234 187.309 221.157 188.08 219.791C188.85 218.424 189.236 216.897 189.236 215.21C189.236 213.541 188.85 212.023 188.08 210.657C187.309 209.291 186.25 208.213 184.902 207.425C183.555 206.636 182.046 206.242 180.377 206.242C178.689 206.242 177.171 206.636 175.824 207.425C174.476 208.213 173.417 209.291 172.646 210.657C171.876 212.023 171.49 213.541 171.49 215.21C171.49 216.897 171.876 218.424 172.646 219.79C173.417 221.156 174.476 222.234 175.824 223.023C177.172 223.812 178.69 224.206 180.377 224.206ZM198.546 225.967C198.178 225.967 197.885 225.871 197.666 225.678C197.446 225.485 197.336 225.224 197.336 224.894V205.554C197.336 205.242 197.436 204.985 197.638 204.784C197.839 204.582 198.095 204.481 198.407 204.481H205.093C206.194 204.481 207.189 204.715 208.078 205.182C208.967 205.651 209.673 206.297 210.197 207.122C210.719 207.947 210.981 208.873 210.981 209.901C210.981 210.872 210.719 211.743 210.197 212.514C209.674 213.285 208.972 213.881 208.091 214.302C209.358 214.65 210.358 215.278 211.091 216.186C211.825 217.095 212.191 218.237 212.191 219.613C212.191 220.841 211.907 221.937 211.338 222.899C210.77 223.862 209.986 224.614 208.986 225.155C207.986 225.697 206.844 225.967 205.561 225.967H198.546ZM205.093 213.45C206.213 213.45 207.125 213.133 207.83 212.499C208.537 211.867 208.89 211.001 208.89 209.9C208.89 208.836 208.542 208.012 207.845 207.425C207.147 206.838 206.23 206.545 205.093 206.545H199.481V213.449L205.093 213.45ZM205.561 223.903C206.9 223.903 207.987 223.514 208.821 222.734C209.655 221.955 210.073 220.915 210.073 219.611C210.073 218.364 209.655 217.37 208.821 216.627C207.987 215.884 206.9 215.513 205.561 215.513H199.481V223.903H205.561ZM233.302 224.454C233.376 224.582 233.413 224.729 233.413 224.894C233.413 225.187 233.307 225.439 233.095 225.65C232.885 225.862 232.633 225.967 232.339 225.967C231.863 225.967 231.523 225.747 231.321 225.306L229.478 220.85H218.831L216.986 225.306C216.839 225.746 216.51 225.967 215.997 225.967C215.686 225.967 215.433 225.862 215.239 225.65C215.047 225.439 214.95 225.187 214.95 224.894C214.95 224.71 214.978 224.555 215.033 224.427L223.122 205.224C223.323 204.728 223.671 204.481 224.167 204.481C224.663 204.481 225.002 204.728 225.185 205.224L233.302 224.454ZM228.735 219.006L224.169 207.974L219.602 219.006H228.735ZM250.671 204.481C250.983 204.481 251.24 204.582 251.442 204.784C251.644 204.985 251.745 205.242 251.745 205.554V224.894C251.745 225.205 251.644 225.462 251.442 225.665C251.24 225.867 250.983 225.967 250.671 225.967C250.36 225.967 250.104 225.867 249.902 225.665C249.699 225.462 249.598 225.205 249.598 224.894V217.547H244.509L239.447 225.418C239.227 225.785 238.915 225.969 238.511 225.969C238.182 225.969 237.916 225.886 237.714 225.721C237.512 225.555 237.411 225.335 237.411 225.061C237.411 224.84 237.494 224.593 237.658 224.318L242.281 217.054C240.867 216.724 239.703 216.019 238.787 214.937C237.87 213.854 237.411 212.579 237.411 211.113C237.411 209.828 237.709 208.686 238.305 207.686C238.901 206.687 239.727 205.903 240.781 205.334C241.836 204.766 243.033 204.482 244.371 204.482L250.671 204.481ZM249.598 206.544H244.371C242.94 206.544 241.776 206.956 240.878 207.782C239.979 208.608 239.53 209.718 239.53 211.111C239.53 212.45 239.979 213.523 240.877 214.33C241.776 215.137 242.941 215.541 244.371 215.541H249.598V206.544ZM289.967 224.261C290.133 224.48 290.215 224.701 290.215 224.922C290.215 225.197 290.096 225.453 289.857 225.691C289.674 225.875 289.435 225.967 289.142 225.967C288.831 225.967 288.574 225.857 288.371 225.637L280.311 216.063H277.065V224.894C277.065 225.187 276.964 225.439 276.762 225.65C276.56 225.862 276.303 225.967 275.991 225.967C275.698 225.967 275.446 225.862 275.235 225.65C275.025 225.439 274.919 225.187 274.919 224.894V205.554C274.919 205.242 275.025 204.985 275.235 204.784C275.446 204.582 275.698 204.481 275.991 204.481C276.303 204.481 276.56 204.582 276.762 204.784C276.964 204.985 277.065 205.242 277.065 205.554V214.135H280.174L287.657 204.809C287.858 204.589 288.115 204.48 288.427 204.48C288.721 204.48 288.959 204.571 289.142 204.754C289.362 204.938 289.473 205.168 289.473 205.442C289.473 205.662 289.372 205.9 289.17 206.158L282.045 214.934L289.967 224.261ZM304.201 226.242C302.11 226.242 300.23 225.765 298.561 224.811C296.891 223.858 295.585 222.542 294.641 220.863C293.697 219.185 293.224 217.301 293.223 215.21C293.223 213.119 293.696 211.239 294.641 209.57C295.585 207.901 296.891 206.59 298.561 205.637C300.23 204.683 302.11 204.206 304.201 204.206C306.273 204.206 308.148 204.683 309.827 205.637C311.505 206.59 312.817 207.901 313.761 209.57C314.705 211.239 315.178 213.119 315.178 215.21C315.178 217.301 314.705 219.185 313.761 220.863C312.817 222.543 311.505 223.859 309.827 224.811C308.148 225.765 306.272 226.242 304.199 226.242M304.199 224.206C305.869 224.206 307.377 223.812 308.725 223.023C310.073 222.234 311.132 221.157 311.902 219.791C312.673 218.424 313.058 216.897 313.058 215.21C313.058 213.541 312.673 212.023 311.902 210.657C311.132 209.291 310.073 208.213 308.725 207.425C307.377 206.636 305.869 206.242 304.199 206.242C302.512 206.242 300.994 206.636 299.646 207.425C298.298 208.213 297.239 209.291 296.469 210.657C295.698 212.023 295.313 213.541 295.313 215.21C295.313 216.897 295.698 218.424 296.469 219.79C297.239 221.156 298.298 222.234 299.646 223.023C300.994 223.812 302.512 224.206 304.199 224.206ZM341.599 204.481C341.892 204.481 342.14 204.582 342.342 204.784C342.543 204.985 342.644 205.242 342.644 205.554V224.894C342.644 225.187 342.544 225.439 342.342 225.65C342.14 225.862 341.892 225.967 341.598 225.967C341.287 225.967 341.025 225.862 340.814 225.65C340.603 225.439 340.498 225.187 340.498 224.894V209.322L332.85 224.949C332.629 225.298 332.318 225.472 331.915 225.471C331.457 225.471 331.126 225.251 330.925 224.811L323.303 209.572V224.893C323.303 225.186 323.202 225.438 323.001 225.649C322.799 225.86 322.542 225.966 322.231 225.966C321.938 225.966 321.685 225.86 321.474 225.649C321.263 225.438 321.158 225.186 321.158 224.893V205.553C321.158 205.241 321.263 204.984 321.474 204.782C321.685 204.58 321.937 204.48 322.231 204.48C322.653 204.48 322.973 204.663 323.194 205.03L331.997 222.526L340.636 205.03C340.856 204.663 341.176 204.48 341.598 204.48M350.77 225.967C350.459 225.967 350.202 225.867 349.999 225.665C349.797 225.462 349.696 225.205 349.696 224.894V205.554C349.696 205.242 349.797 204.985 349.999 204.784C350.201 204.582 350.458 204.481 350.77 204.481H365.406C365.717 204.481 365.974 204.582 366.176 204.784C366.378 204.985 366.479 205.242 366.479 205.554V224.894C366.479 225.205 366.378 225.462 366.176 225.665C365.974 225.867 365.717 225.967 365.406 225.967C365.095 225.967 364.838 225.867 364.635 225.665C364.433 225.462 364.332 225.205 364.332 224.894V206.489H351.843V224.895C351.843 225.207 351.742 225.463 351.54 225.666C351.339 225.868 351.082 225.969 350.77 225.969M389.652 224.454C389.727 224.582 389.764 224.729 389.763 224.894C389.763 225.187 389.658 225.439 389.447 225.65C389.236 225.862 388.984 225.967 388.69 225.967C388.213 225.967 387.874 225.747 387.672 225.306L385.83 220.85H375.182L373.339 225.306C373.192 225.746 372.862 225.967 372.348 225.967C372.036 225.967 371.784 225.862 371.592 225.65C371.4 225.439 371.303 225.187 371.303 224.894C371.303 224.71 371.331 224.555 371.386 224.427L379.474 205.224C379.675 204.728 380.024 204.481 380.519 204.481C381.015 204.481 381.355 204.728 381.538 205.224L389.652 224.454ZM385.086 219.006L380.519 207.976L375.952 219.007L385.086 219.006ZM395.495 225.967C395.202 225.967 394.95 225.862 394.739 225.65C394.528 225.439 394.423 225.187 394.423 224.894V205.554C394.423 205.242 394.528 204.985 394.739 204.784C394.95 204.582 395.202 204.481 395.495 204.481C395.807 204.481 396.064 204.582 396.266 204.784C396.467 204.985 396.568 205.242 396.568 205.554V214.135H409.995V205.553C409.995 205.241 410.1 204.984 410.31 204.782C410.521 204.58 410.774 204.48 411.067 204.48C411.378 204.48 411.635 204.58 411.838 204.782C412.039 204.984 412.14 205.241 412.14 205.553V224.894C412.14 225.187 412.039 225.439 411.838 225.65C411.636 225.862 411.379 225.967 411.067 225.967C410.774 225.967 410.521 225.862 410.31 225.65C410.099 225.439 409.994 225.187 409.994 224.894V216.063H396.568V224.894C396.568 225.187 396.467 225.439 396.266 225.65C396.064 225.862 395.807 225.967 395.495 225.967ZM435.892 225.967C435.599 225.967 435.347 225.862 435.136 225.65C434.925 225.439 434.819 225.187 434.819 224.894V208.029L421.092 225.609C421.019 225.719 420.904 225.806 420.748 225.87C420.593 225.935 420.442 225.967 420.295 225.967C419.983 225.967 419.722 225.862 419.511 225.65C419.299 225.439 419.194 225.187 419.194 224.894V205.554C419.194 205.261 419.299 205.008 419.511 204.797C419.722 204.586 419.983 204.481 420.295 204.481C420.588 204.481 420.836 204.582 421.038 204.784C421.239 204.985 421.34 205.242 421.34 205.554V222.446L435.066 204.866C435.267 204.608 435.542 204.48 435.891 204.481C436.202 204.481 436.459 204.582 436.662 204.784C436.862 204.985 436.963 205.242 436.963 205.554V224.894C436.963 225.187 436.862 225.439 436.662 225.65C436.459 225.862 436.202 225.967 435.891 225.967M456.618 204.481C456.93 204.481 457.186 204.582 457.388 204.784C457.59 204.985 457.691 205.242 457.691 205.554V224.894C457.691 225.205 457.59 225.462 457.388 225.665C457.186 225.867 456.93 225.967 456.618 225.967C456.306 225.967 456.05 225.867 455.848 225.665C455.646 225.462 455.546 225.205 455.546 224.894V217.547H450.455L445.394 225.418C445.173 225.785 444.861 225.969 444.458 225.969C444.128 225.969 443.862 225.886 443.66 225.721C443.458 225.555 443.358 225.335 443.358 225.061C443.358 224.84 443.44 224.593 443.606 224.318L448.227 217.054C446.814 216.724 445.649 216.019 444.734 214.937C443.816 213.854 443.358 212.579 443.358 211.113C443.358 209.828 443.655 208.686 444.251 207.686C444.848 206.687 445.674 205.903 446.728 205.334C447.782 204.766 448.978 204.482 450.318 204.482L456.618 204.481ZM455.546 206.544H450.319C448.888 206.544 447.723 206.956 446.824 207.782C445.926 208.608 445.476 209.718 445.476 211.111C445.476 212.45 445.925 213.523 446.823 214.33C447.722 215.137 448.887 215.541 450.318 215.541H455.544L455.546 206.544Z" fill="#9A9B9F"/>
</svg>
