<svg width="467" height="177" viewBox="0 0 467 177" fill="none" xmlns="http://www.w3.org/2000/svg">
<path fill-rule="evenodd" clip-rule="evenodd" d="M314.253 118.796C312.067 120.673 310.981 123.265 311.686 126.954C313.403 135.914 330.15 137.173 344.132 125.949C346.986 123.658 349.552 121.156 352.434 118.796C355.083 116.622 357.998 114.573 361.647 112.921C387.967 101.004 403.974 108.809 422.17 123.208C421.594 125.04 420.779 126.769 419.766 128.361C406.291 108.78 380.966 102.169 363.342 116.638C360.259 119.17 357.759 121.597 355.047 124.134C346.403 132.224 336.123 141.138 322.191 137.301C311.649 134.4 307.918 125.816 309.957 118.794L314.253 118.796Z" fill="#249083"/>
<path d="M60.9465 80.1291H71.8718V-1.58807e-06H60.9465L22.0946 69.2025V14.5693C22.0946 2.428 19.668 -1.58807e-06 11.168 -1.58807e-06H0.241333V2.42801H2.66933C9.95464 2.42801 11.168 7.28398 11.168 14.5693V80.1291H22.0946L60.9452 10.9266L60.9465 80.1291ZM136.826 35.8159V61.9185C136.826 74.6665 141.682 82.5585 156.858 82.5585V80.1291C151.396 80.1291 147.753 71.0238 147.753 61.9185V23.068H136.826L118.613 63.1332L100.402 23.0666H88.8691V80.1291H93.7251V34.6013L114.365 80.1291H116.792L136.826 35.8159ZM213.314 23.068H157.466V25.4946H158.68C165.964 25.4946 167.178 30.3519 167.178 37.6373V80.1305H178.105V27.9239H202.387V80.1291H213.314V23.068ZM273.411 48.5626C273.411 31.5666 265.519 21.8533 249.13 21.8533C233.953 21.8533 225.454 35.2093 225.454 51.5985C225.454 67.9892 233.953 81.3438 250.95 81.3438C260.057 81.3438 267.341 77.7011 272.803 68.5958L270.377 66.7745C266.126 72.8452 261.27 76.4878 253.379 76.4878C243.059 76.4878 236.989 66.7745 236.989 53.4199H273.169L273.411 48.5626ZM236.989 48.5626C236.989 36.4226 242.451 27.3173 249.735 27.3173C258.235 27.3173 262.485 35.2079 262.485 48.5639L236.989 48.5626ZM298.906 33.9946C301.335 30.3519 304.977 26.7106 311.655 26.7106C321.367 26.7106 325.616 37.6372 325.616 51.5985C325.616 65.5612 321.367 76.4878 310.441 76.4878C306.799 76.4878 302.55 74.6665 298.907 72.8452L298.906 33.9946ZM287.979 103.197H298.907V77.7012C302.549 79.5225 307.406 81.3438 314.083 81.3438C329.866 81.3438 337.15 67.9892 337.15 51.5985C337.15 35.2093 329.866 21.8533 315.297 21.8533C306.191 21.8533 301.335 25.4959 298.907 28.5306H298.299C297.086 24.888 294.051 23.068 287.979 23.068H277.054V25.4946H279.481C286.766 25.4946 287.981 30.3519 287.981 37.6373L287.979 103.197ZM388.143 80.1291H399.07V23.068H388.143L362.647 69.2025V37.6373C362.647 25.496 360.218 23.068 351.719 23.068H341.399V25.4946H343.22C350.506 25.4946 351.719 30.3519 351.719 37.6373V80.1305H362.647L388.143 33.9946V80.1291ZM457.952 37.6359C457.952 30.3519 459.165 25.4959 466.451 25.4959V23.068H437.919C424.564 23.068 413.636 26.7106 413.636 39.4572C413.636 48.5639 420.315 54.0265 427.599 55.2412L420.314 67.9878C417.887 72.2385 414.243 77.0945 408.78 77.7012V80.1291C410.602 80.7371 413.03 81.3425 415.458 81.3425C422.378 81.3425 426.627 77.7025 430.27 70.4172L437.555 55.8479H447.024V80.1291H457.951L457.952 37.6359ZM447.026 50.3852C445.204 50.9919 441.563 51.5985 439.134 51.5985C430.635 51.5985 425.172 47.9572 425.172 39.4572C425.172 30.9586 430.635 27.3173 439.134 27.3173C441.563 27.3173 445.204 27.9239 447.026 28.5306V50.3852Z" fill="#249083"/>
<path fill-rule="evenodd" clip-rule="evenodd" d="M57.3359 151.304C57.3359 164.536 48.5145 170.837 34.6546 170.837C30.8733 170.837 26.4626 170.206 22.6813 169.072V133.536C26.4626 132.402 30.8733 131.772 34.6546 131.772C48.5145 131.772 57.3359 138.072 57.3359 151.304ZM0 92.0771V94.5971H2.51999C10.08 94.5971 11.3413 99.6371 11.3413 107.198V175.246H36.5439C51.0372 175.246 69.9372 171.465 69.9372 151.304C69.9372 131.141 51.0359 127.36 36.5439 127.36H22.6826V97.1171H45.4919C55.5719 97.1171 61.2425 101.528 61.2425 111.609H63.7625V102.158C63.7625 97.1184 61.8732 92.0771 53.0519 92.0771H0ZM98.9198 121.06H119.084V175.246H130.425V116.02H79.2625V118.54C86.9504 118.54 88.2091 123.58 88.2091 131.14C88.2091 161.385 84.4291 171.465 74.9785 172.096V175.246C76.8691 175.876 80.0185 176.506 81.9091 176.506C93.8811 176.506 98.9211 166.426 98.9211 136.182L98.9198 121.06ZM195.322 142.482C195.322 124.84 187.132 114.758 170.12 114.758C154.368 114.758 145.546 128.621 145.546 145.633C145.546 162.645 154.368 176.506 172.009 176.506C181.461 176.506 189.022 172.726 194.693 163.274L192.173 161.385C187.761 167.685 182.721 171.465 174.53 171.465C163.818 171.465 157.517 161.385 157.517 147.522H195.07L195.322 142.482ZM157.518 142.482C157.518 129.882 163.189 120.429 170.75 120.429C179.57 120.429 183.981 128.621 183.981 142.482H157.518ZM231.865 114.758C212.963 114.758 204.143 128.621 204.143 145.633C204.143 162.645 212.963 176.506 231.866 176.506C241.946 176.506 249.509 172.726 255.179 163.274L252.659 161.385C248.249 167.685 243.207 171.465 234.387 171.465C221.786 171.465 216.115 160.125 216.115 145.633C216.115 131.14 221.786 119.8 234.387 119.8C243.207 119.8 250.138 124.84 250.769 135.55H253.289C253.289 126.101 253.289 122.32 250.138 119.169C246.987 116.02 240.686 114.758 231.865 114.758ZM279.123 131.141C279.123 118.54 276.603 116.02 267.782 116.02H256.439V118.54H258.961C266.521 118.54 267.782 123.58 267.782 131.14V175.246H279.123V148.153L293.615 166.426C299.285 173.482 305.586 176.506 311.887 176.506C314.407 176.506 316.927 175.876 318.187 175.246V172.852C312.517 172.096 308.107 168.316 303.697 162.645L289.203 144.373L303.066 124.84C304.097 123.397 305.262 122.292 306.497 121.457C306.213 119.772 306.247 118.064 306.59 116.418C301.215 117.414 297.769 120.218 294.874 124.21L279.123 146.264V131.141ZM306.497 121.457C308.491 120.564 312.49 119.169 314.407 119.169V116.02H311.257C310.998 116.02 306.837 116.413 306.583 116.42C306.319 117.82 306.178 119.79 306.497 121.457ZM356.622 163.274C354.102 167.056 350.95 170.836 344.648 170.836C338.348 170.836 332.678 167.056 332.678 158.865C332.678 151.304 340.239 146.264 352.84 146.264H356.622V163.274ZM367.963 175.246V141.222C367.963 125.962 363.114 119.256 356.487 116.502C354.94 117.91 353.47 119.316 351.93 120.756L350.772 121.834C354.352 124.453 356.622 130.064 356.622 141.221H352.84C335.829 141.221 320.707 145.002 320.707 158.865C320.707 172.726 332.049 176.506 338.979 176.506C348.43 176.506 354.1 172.726 356.622 169.576H357.251L361.662 175.246H367.963ZM349.899 114.945C348.59 114.812 347.255 114.758 345.91 114.758C338.35 114.758 330.158 116.02 327.009 119.169C323.889 122.289 323.858 126.026 323.858 130.381C325.822 130.101 327.883 129.588 329.985 128.832C332.153 121.972 336.958 119.8 343.39 119.8C343.681 119.8 343.97 119.806 344.255 119.818C345.916 118.352 347.558 116.858 349.316 115.416L349.899 114.945ZM425.21 124.621C425.21 138.993 436.968 150.752 451.339 150.752C436.968 150.752 425.21 162.512 425.21 176.882C425.21 162.51 413.45 150.752 399.079 150.752C413.45 150.752 425.21 138.992 425.21 124.621ZM445.886 124.782C445.886 128.181 448.667 130.961 452.066 130.961C448.667 130.961 445.887 133.744 445.887 137.141C445.887 133.744 443.104 130.962 439.707 130.962C443.104 130.962 445.886 128.181 445.886 124.782Z" fill="#249083"/>
</svg>
